<?xml version="1.0" encoding="UTF-8"?>
<svg id="Layer_2" data-name="Layer 2" xmlns="http://www.w3.org/2000/svg" viewBox="0 0 100.54 101.11">
  <defs>
    <style>
      .cls-1 {
        fill: #171717;
        stroke-width: 0px;
      }
    </style>
  </defs>
  <g id="Layer_1-2" data-name="Layer 1">
    <path class="cls-1" d="m57.03,58.7c4.39,5.2,8.62,10.1,12.67,15.13.53.66.68,2.39.2,2.99-6.36,8.05-12.86,15.98-19.6,24.28-1.35-1.65-2.58-3.13-3.78-4.63-5.1-6.39-10.17-12.81-15.32-19.15-1.29-1.59-1.33-2.46.21-4.15,4.21-4.62,8.02-9.61,12.12-14.61,4.3,2.96,8.97,3.15,13.5.14Z"/>
    <path class="cls-1" d="m58.6,57.23c3.1-5.87,3.12-7.95.1-13.67,5.45-4.51,10.89-9.01,16.54-13.68,8.17,6.58,16.54,13.33,25.31,20.39-8.62,6.97-17.09,13.82-25.37,20.51-5.64-4.61-11.1-9.07-16.58-13.55Z"/>
    <path class="cls-1" d="m0,50.28c8.67-7.02,17.02-13.79,25.31-20.51,5.45,4.77,10.74,9.4,16.21,14.19-2.59,4.18-2.7,8.79.17,12.8-5.54,4.7-10.91,9.24-16.47,13.95-8.14-6.6-16.5-13.37-25.22-20.44Z"/>
    <path class="cls-1" d="m56.57,41.53c-4.3-2.67-8.88-2.79-12.94.35-4.59-5.51-9.09-10.92-13.77-16.54,6.63-8.23,13.43-16.67,20.41-25.34,6.97,8.59,13.8,17,20.58,25.35-4.71,5.34-9.36,10.61-14.28,16.18Z"/>
  </g>
</svg>