<?xml version="1.0" encoding="UTF-8"?>
<svg id="Layer_2" data-name="Layer 2" xmlns="http://www.w3.org/2000/svg" viewBox="0 0 251.18 150.64">
  <defs>
    <style>
      .cls-1 {
        fill: #5c7aea;
        stroke-width: 0px;
      }
    </style>
  </defs>
  <g id="Layer_1-2" data-name="Layer 1">
    <g>
      <path class="cls-1" d="m132.22,58.7c4.39,5.2,8.62,10.1,12.67,15.13.53.66.68,2.39.2,2.99-6.36,8.05-12.86,15.98-19.6,24.28-1.35-1.65-2.58-3.13-3.78-4.63-5.1-6.39-10.17-12.81-15.32-19.15-1.29-1.59-1.33-2.46.21-4.15,4.21-4.62,8.02-9.61,12.12-14.61,4.3,2.96,8.97,3.15,13.5.14Z"/>
      <path class="cls-1" d="m133.79,57.23c3.1-5.87,3.12-7.95.1-13.67,5.45-4.51,10.89-9.01,16.54-13.68,8.17,6.58,16.54,13.33,25.31,20.39-8.62,6.97-17.09,13.82-25.37,20.51-5.64-4.61-11.1-9.07-16.58-13.55Z"/>
      <path class="cls-1" d="m75.19,50.28c8.67-7.02,17.02-13.79,25.31-20.51,5.45,4.77,10.74,9.4,16.21,14.19-2.59,4.18-2.7,8.79.17,12.8-5.54,4.7-10.91,9.24-16.47,13.95-8.14-6.6-16.5-13.37-25.22-20.44Z"/>
      <path class="cls-1" d="m131.76,41.53c-4.3-2.67-8.88-2.79-12.94.35-4.59-5.51-9.09-10.92-13.77-16.54,6.63-8.23,13.43-16.67,20.41-25.34,6.97,8.59,13.8,17,20.58,25.35-4.71,5.34-9.36,10.61-14.28,16.18Z"/>
      <path class="cls-1" d="m101.2,143.37c-2.56-6.16-4.96-11.92-7.56-18.18-1.94,4.6-3.7,8.8-5.49,12.99-1.11,2.6-4.03,3.89-6.52,2.62-.61-.31-1.18-1.91-.91-2.57,2.88-7.11,5.82-14.21,9.09-21.15.48-1.01,2.79-1.57,4.26-1.57,1.22,0,3.13.82,3.56,1.8,4.37,9.83,8.48,19.78,12.69,29.68,1.15,2.71-.37,3.12-2.53,3.11-9.19-.01-18.38.02-27.57-.03-1.44,0-3.48.67-3.61-1.85-.11-2.2,2.01-4.82,3.86-4.83,5.69-.05,11.39-.02,17.08-.02,1.07,0,2.14,0,3.67,0Z"/>
      <path class="cls-1" d="m24.68,143.37c-2.57-6.15-4.93-11.82-7.6-18.2-1.93,4.64-3.56,8.7-5.34,12.7-.5,1.12-1.28,2.72-2.19,2.92-1.64.36-3.47-.17-5.23-.32.2-1.49.11-3.1.67-4.45,2.53-6.18,5.36-12.25,7.84-18.45.91-2.29,2.51-2.16,4.33-2.2,1.78-.04,3.3.07,4.14,2.1,4.02,9.67,8.15,19.29,12.19,28.95,1.26,3,.76,3.67-2.6,3.68-9.1.03-18.2.02-27.29,0-1.52,0-3.49.5-3.6-1.96-.1-2.26,2.02-4.73,4-4.75,6.1-.04,12.2-.02,18.29-.02.6,0,1.19,0,2.39,0Z"/>
      <path class="cls-1" d="m205.6,128.16c-2.44,3.14-4.93,6.24-7.31,9.43-1.31,1.75-2.49,1.79-3.79.08-4.81-6.36-9.65-12.7-14.4-19.11-1.33-1.8-.73-2.91,1.54-3.15,2.59-.27,4.7.08,6.37,2.68,2.41,3.76,5.37,7.17,8.3,11,2.84-3.85,5.53-7.6,8.36-11.26.75-.97,1.81-2.03,2.91-2.32,4.05-1.06,5.43.14,5.43,4.31,0,8.78-.04,17.57.03,26.35.02,2.44-.35,3.98-3.37,3.95-2.86-.03-3.58-1.29-3.53-3.87.11-5.96.03-11.93.03-17.89-.2-.07-.39-.14-.59-.22Z"/>
      <path class="cls-1" d="m142.39,137.3c0-6.24.07-12.49-.04-18.73-.04-2.16.78-3.08,2.9-3.19,3.11-.16,3.93.52,3.93,3.65.01,9,.06,18-.06,26.99-.02,1.31-.66,3.57-1.4,3.73-2.08.47-4.55,1.18-6.28-1.21-4.57-6.31-9.19-12.58-13.78-18.87-2.3-3.15-4.62-6.27-6.84-9.47-.88-1.27-3.14-3-1.05-4.14,1.59-.86,4.43-.33,6.3.5,1.43.64,2.24,2.7,3.31,4.15,4.13,5.59,8.25,11.18,12.37,16.77.21-.06.43-.12.64-.18Z"/>
      <path class="cls-1" d="m51.89,140.99c-1.09-4.3.93-8.51,4.12-12.52,2.73-3.42,5.05-7.16,7.57-10.75,1.5-2.13,4.77-3.15,7.05-2.14,2.2.97,1.15,2.4.3,3.64-3.27,4.77-6.5,9.56-9.91,14.22-1.67,2.28-2.6,4.59-2.32,7.44.19,1.88.04,3.79.03,5.68-.02,3.53-2.02,4.93-5.36,3.56-.68-.28-1.34-1.41-1.42-2.21-.2-1.97-.07-3.98-.07-6.92Z"/>
      <path class="cls-1" d="m237.76,122.29c-3.29,0-6.59-.06-9.88.02-2.55.06-3.19-1.24-3.19-3.56,0-2.24.75-3.37,3.08-3.36,6.79.03,13.58.04,20.36,0,2.38-.02,3.08,1.17,3.04,3.38-.04,2.26-.65,3.63-3.23,3.56-3.39-.1-6.79-.02-10.18-.02Z"/>
      <path class="cls-1" d="m238.31,143.38c3.29,0,6.58.07,9.87-.02,2.48-.07,3.02,1.27,2.99,3.39-.03,2.09-.52,3.42-3.02,3.39-6.88-.09-13.75-.06-20.63-.01-2.31.02-2.83-1.22-2.81-3.24.02-2.02.25-3.58,2.84-3.52,3.59.07,7.18.02,10.76.02Z"/>
      <path class="cls-1" d="m236.71,136.22c-2.9,0-5.8-.07-8.7.02-2.45.08-3.39-.92-3.32-3.39.06-2.24.5-3.63,3.15-3.58,6,.1,12,.07,18,.02,2.52-.02,3.24,1.24,3.22,3.56-.02,2.37-.84,3.51-3.36,3.41-2.99-.13-6-.03-9-.03Z"/>
      <path class="cls-1" d="m167.73,139.88c0,2.49-.02,4.98,0,7.46.02,2.25-1.25,2.83-3.28,2.8-1.96-.03-3.68-.14-3.68-2.7,0-5.17,0-10.35,0-15.52,0-2.65,1.89-2.57,3.75-2.63,2-.06,3.29.52,3.23,2.83-.06,2.59-.01,5.17-.02,7.76Z"/>
      <path class="cls-1" d="m47.91,128.24c-1.37-1-2.93-1.77-3.97-2.98-1.73-2.04-3.19-4.32-4.64-6.57-1.15-1.78-.77-3,1.54-3.27,2.84-.33,5.29-.02,6.78,2.94.84,1.67,2.2,3.08,3.14,4.7.61,1.05,1.56,2.72,1.17,3.33-.59.9-2.24,1.1-4.02,1.84Z"/>
      <path class="cls-1" d="m167.74,121.27c0,.8-.06,1.6.01,2.39.21,2.57-.66,3.76-3.52,3.8-2.97.04-3.58-1.4-3.48-3.85.06-1.49.09-2.99,0-4.47-.17-2.57.7-3.87,3.55-3.8,2.54.06,3.73.95,3.46,3.55-.08.79-.01,1.59-.01,2.39Z"/>
      <path class="cls-1" d="m125.79,144.13c0,.79-.04,1.59,0,2.38.16,2.41-.62,3.64-3.36,3.63-2.79,0-3.75-1.19-3.59-3.77.08-1.29,0-2.58.01-3.87.01-4.09.34-4.32,3.71-4.47,3.43-.15,3.28,2.04,3.22,4.32-.01.6,0,1.19,0,1.79Z"/>
      <path class="cls-1" d="m186.26,143.96c0,.79-.04,1.59,0,2.38.17,2.56-.76,3.78-3.57,3.8-2.94.01-3.56-1.43-3.43-3.89.08-1.58.11-3.18,0-4.76-.18-2.63,1.07-3.44,3.56-3.48,2.64-.04,3.61,1.09,3.45,3.57-.05.79,0,1.59,0,2.38Z"/>
    </g>
  </g>
</svg>